<?xml version="1.0" encoding="utf-8"?>
<!-- Generator: Adobe Illustrator 16.0.0, SVG Export Plug-In . SVG Version: 6.00 Build 0)  -->
<!DOCTYPE svg PUBLIC "-//W3C//DTD SVG 1.1//EN" "http://www.w3.org/Graphics/SVG/1.1/DTD/svg11.dtd">
<svg version="1.1" id="Layer_1" xmlns="http://www.w3.org/2000/svg" xmlns:xlink="http://www.w3.org/1999/xlink" x="0px" y="0px"
	 width="612px" height="792px" viewBox="0 0 612 792" enable-background="new 0 0 612 792" xml:space="preserve">
<path fill="#F9D026" d="M560.603,141.396c171.933,171.932-142.602,388.065-142.602,388.065l24.665-80.552L235.367,624.744
	l31.119-115.77L0.001,701.999l193.026-266.484L77.256,466.631l175.834-207.3l-80.551,24.666
	C172.539,283.997,388.67-30.535,560.603,141.396z"/>
<path fill="#E7C224" d="M0.001,701.999l560.602-560.604c171.934,171.931-142.601,388.065-142.601,388.065l24.665-80.553
	L235.369,624.742l31.117-115.77L0.001,701.999z"/>
<polygon fill="#FFAC12" points="449.812,181.737 540.353,161.646 520.262,252.188 567.349,332.091 475.03,340.961 413.59,410.435 
	376.625,325.376 291.565,288.41 361.039,226.97 369.908,134.651 "/>
<polygon fill="#D89210" points="475.03,340.961 413.59,410.435 376.625,325.376 540.353,161.646 520.262,252.188 567.349,332.091 
	"/>
</svg>
